<svg xmlns:xlink="http://www.w3.org/1999/xlink" xmlns="http://www.w3.org/2000/svg" version="1.1" viewBox="0 0 800 800" height="800px" width="800px">
    
    <title>12. Travel Package</title>
    <desc>Created with Sketch.</desc>
    <defs>
        <path id="path-1" d="M111.538688,230.095911 C111.538688,308.096999 -28.4512113,329.854212 5.85471594,444.503047 C40.1606432,559.151882 331.696394,620.585441 474.885509,440.16303 C618.074623,259.74062 336.825166,-38.2505756 198.560605,4.06364595 C60.2960451,46.3778675 111.538688,152.094823 111.538688,230.095911 Z"></path>
        <circle r="103.680006" cy="103.680006" cx="103.680006" id="path-3"></circle>
        <path id="path-5" d="M2.73045304,1.78434369 L26.1643406,1.78434369 L27.6930045,0 L68.4000054,0 C69.9905856,-2.92184844e-16 71.2800057,1.28942002 71.2800057,2.88000023 L71.2800057,39.6000031 C71.2800057,41.1905834 69.9905856,42.4800034 68.4000054,42.4800034 L2.88000023,42.4800034 C1.28942002,42.4800034 -2.49299314e-16,41.1905834 0,39.6000031 L0,8.16702762 L0,8.16702762 L2.73045304,1.78434369 Z"></path>
        <path id="path-7" d="M0,34.2587624 L2.91193592,6.83039689 C3.30800477,3.09970998 6.4550808,0.269057975 10.2067331,0.269057975 L10.2067331,0.269057975 L10.2067331,0.269057975 L27.4743819,33.2419497 L0,34.2587624 Z"></path>
        <path id="path-9" d="M14.6066723,13.3428777 L23.1511873,9.84260734 C28.7929892,7.53143676 34.8325294,6.34661443 40.929362,6.35492821 L226.005798,6.60730274 C229.456421,6.61200809 232.24989,9.41310548 232.245184,12.8637289 C232.24504,12.9695891 232.242205,13.0754285 232.236683,13.1811447 C232.036084,17.0212195 229.194359,20.2062897 225.401912,20.8417092 C181.444645,28.2067203 151.033087,32.170856 134.167239,32.7341165 C56.5491241,35.3262906 16.5079968,31.2849232 12.7263838,30.6406503 C8.14472605,29.8600738 4.70460593,28.7959532 2.40602342,27.4482884 L2.40601011,27.4483111 C0.525370153,26.3456871 -0.105336413,23.9272739 0.997287565,22.0466339 C1.12034806,21.8367414 1.2625512,21.6386764 1.42208131,21.4549677 C1.42208131,21.4549677 1.42208131,21.4549677 1.42208131,21.4549677 C2.69846284,19.985136 7.09332652,17.281106 14.6066723,13.3428777 L14.6066723,13.3428777 Z"></path>
        <path id="path-11" d="M31.7208627,0 L0.106797015,0 L0.106797015,5.8548581 L85.0615345,30.1866309 C92.6882323,32.3709833 100.683654,32.9579266 108.547579,31.9107398 L109.492024,31.7849742 L109.492024,31.7849742 L31.7208627,0 Z"></path>
        <path id="path-13" d="M12.4209496,0 L0.249082201,1.89987077 L0.249082201,4.7551764 L29.4154599,11.5118509 C34.9753616,12.7998561 40.7222758,13.0724146 46.3791198,12.3163852 L46.3791198,12.3163852 L46.3791198,12.3163852 L12.4209496,0 Z"></path>
        <ellipse ry="165.000007" rx="164.840374" cy="165.000007" cx="165.129021" id="path-15"></ellipse>
        <circle r="95.4000038" cy="95.4000038" cx="95.4000038" id="path-17"></circle>
        <path id="path-19" d="M9.22859577,4.25554777 L8.03384555,18.727972 L4.14410089,18.727972 L4.14410089,22.9504364 L8.03384555,22.9504364 L0.703906935,95.2215696 L34.4836267,95.2215696 L26.2523763,22.9504364 L30.6756304,22.9504364 L30.6756304,18.727972 L25.592582,18.727972 L25.592582,4.25554777 C24.1050747,1.95012309 21.438803,0.797410752 17.5937668,0.797410752 C13.7487306,0.797410752 10.9603403,1.95012309 9.22859577,4.25554777 Z"></path>
        <rect rx="24" height="161.714286" width="113" y="0" x="0" id="path-21"></rect>
        <path id="path-23" d="M7.25215924,0 L49.1096839,8.26815242 L59.4923539,53.8909194 C60.2276749,57.1220132 58.2044514,60.3374277 54.9733576,61.0727487 C54.7462036,61.1244437 54.5162316,61.1628652 54.2846097,61.1878181 L29.6393166,63.8428853 C28.6811619,63.9461085 27.7122405,63.8170171 26.8145341,63.4665337 L-4.26325641e-14,52.9975768 L-4.26325641e-14,52.9975768 L7.25215924,0 Z"></path>
    </defs>
    <g fill-rule="evenodd" fill="none" stroke-width="1" stroke="none" id="12.-Travel-Package">
        <rect height="800" width="800" y="0" x="0" fill="#FFFFFF"></rect>
        <g transform="translate(133.000000, 33.000000)">
            <g transform="translate(3.557915, 156.000000)" id="Path-162">
                <mask fill="white" id="mask-2">
                    <use xlink:href="#path-1"></use>
                </mask>
                <use xlink:href="#path-1" fill="#EEF6FF" id="Mask"></use>
                <path mask="url(#mask-2)" fill="#E9F4FF" d="M104.748789,212.004814 C152.494166,242.691899 170.212726,285.756203 157.90447,341.197726 C139.442085,424.360011 325.683229,525.641337 492.227722,425 C461.486343,488.330706 436.141077,523.249339 416.191927,529.755897 C386.268201,539.515734 183.496603,634.609949 60.0389387,544.968688 C-22.2661704,485.207848 -36.8651215,413.31162 16.2420854,329.280005 L77.4420878,277 L104.748789,212.004814 Z"></path>
            </g>
            <g transform="translate(352.000000, 373.000000)" id="Group-3-+-Sun-Glasses-Mask">
                <mask fill="white" id="mask-4">
                    <use xlink:href="#path-3"></use>
                </mask>
                <use xlink:href="#path-3" fill="#D9ECFF" id="Mask"></use>
                <g mask="url(#mask-4)" id="Group-3">
                    <g transform="translate(102.500000, 131.500000) rotate(-1.000000) translate(-102.500000, -131.500000) translate(37.000000, 75.000000)">
                        <path fill="none" stroke-width="1.80000014" stroke="#FFFFFF" id="Path-2" d="M13.1631449,78.8241195 C2.13197784,75.8155159 -1.94835742,68.9520134 0.922139119,58.2336121 C5.22788393,42.1560101 33.0591787,49.9249445 43.2361853,27.2912984 C53.413192,4.65765232 104.730646,-16.2933395 125.069108,18.5614909 C138.628083,41.7980445 124.539818,61.8855874 82.8043146,78.8241195"></path>
                        <g transform="translate(12.600001, 69.480006)" fill-rule="evenodd" fill="none" stroke-width="1" stroke="none" id="Rectangle">
                            <mask fill="white" id="mask-6">
                                <use xlink:href="#path-5"></use>
                            </mask>
                            <use xlink:href="#path-5" fill="#F3F9FF" id="Mask"></use>
                            <rect height="30.9600025" width="75.600006" y="8.28000066" x="-1.80000014" mask="url(#mask-6)" fill="#9DC9F8"></rect>
                        </g>
                        <rect rx="0.720000057" height="1.44000011" width="7.5600006" y="69.8400056" x="18.3600015" fill-rule="evenodd" fill="#9DC9F8" stroke="none" id="Rectangle"></rect>
                        <rect rx="0.5" height="1" width="5.0400004" y="69.4800055" x="19.4400015" fill-rule="evenodd" fill="#9DC9F8" stroke="none" id="Rectangle-Copy-5"></rect>
                        <rect rx="0.720000057" height="2.5200002" width="9.00000072" y="68.7600055" x="27.7200022" fill-rule="evenodd" fill="#9DC9F8" stroke="none" id="Rectangle-Copy-8"></rect>
                        <rect rx="0.5" height="1" width="5.76000046" y="68.0400054" x="29.1600023" fill-rule="evenodd" fill="#9DC9F8" stroke="none" id="Rectangle-Copy-6"></rect>
                        <rect rx="1.98000016" height="3.96000031" width="10.4400008" y="71.6400057" x="43.9200035" fill-rule="evenodd" fill="#F3F9FF" stroke="none" id="Rectangle"></rect>
                        <circle r="1.98000016" cy="82.2600065" cx="29.3400023" fill-rule="evenodd" fill="#FFFFFF" stroke="none" id="Oval"></circle>
                        <rect rx="2.88000023" height="9.00000072" width="34.9200028" y="90.3600072" x="37.440003" fill-rule="evenodd" fill="#FFFFFF" stroke="none" id="Rectangle"></rect>
                        <circle r="15.8400013" cy="95.0400076" cx="55.0800044" fill-rule="evenodd" fill="#9DC9F8" stroke-width="0.600000024" stroke="#9DC9F8" id="Oval"></circle>
                        <circle r="15.1200012" cy="95.0400076" cx="55.0800044" fill="none" stroke-width="0.600000024" stroke="#FFFFFF" id="Oval-Copy-8"></circle>
                        <circle r="13.6800011" cy="95.0400076" cx="55.0800044" fill="none" stroke-width="0.600000024" stroke="#FFFFFF" id="Oval-Copy-9"></circle>
                        <circle r="8.28000066" cy="95.0400076" cx="55.0800044" fill="none" stroke-width="0.600000024" stroke="#7AA9DC" id="Oval-Copy-10"></circle>
                        <circle r="1" cy="100.620008" cx="77.2200061" fill-rule="evenodd" fill="#F3F9FF" stroke="none" id="Oval"></circle>
                        <circle r="1.44000011" cy="104.400008" cx="79.2000063" fill-rule="evenodd" fill="#FFFFFF" stroke="none" id="Oval-Copy-12"></circle>
                        <circle r="6.48000051" cy="95.0400076" cx="55.0800044" fill-rule="evenodd" fill="#9DC9F8" stroke-width="0.600000024" stroke="#7AA9DC" id="Oval-Copy-11"></circle>
                        <circle r="3.7800003" cy="94.1400075" cx="54.5400043" fill-rule="evenodd" fill="#D9ECFF" stroke-width="0.600000024" stroke="#FFFFFF" id="Oval-Copy-13"></circle>
                        <circle r="1" cy="92.7000074" cx="51.3000041" fill-rule="evenodd" fill="#FFFFFF" stroke="none" id="Oval"></circle>
                        <rect rx="1.08000009" height="10.4400008" width="13.6800011" y="70.2000056" x="65.5200052" fill-rule="evenodd" fill="#9DC9F8" stroke="none" id="Rectangle"></rect>
                        <rect rx="0.720000057" height="6.12000049" width="8.28000066" y="72.3600058" x="68.4000054" fill-rule="evenodd" fill="#F3F9FF" stroke-width="0.600000024" stroke="#D9ECFF" id="Rectangle-Copy-4"></rect>
                    </g>
                </g>
                <g stroke="#9DC9F8" mask="url(#mask-4)" id="Sun-Glasses">
                    <g transform="translate(167.500000, 36.500000) rotate(-29.000000) translate(-167.500000, -36.500000) translate(137.000000, 27.000000)">
                        <path stroke-linecap="round" fill="none" stroke-width="1.76399993" id="Path-18" d="M59.5070187,2.44028451 L9.85383697,8.82111425 C7.25815269,9.15468038 4.87928022,10.4416417 3.17978136,12.431754 L2.76354193,12.9191701 C1.30879625,14.6226765 0.352497575,16.6946799 -2.84217094e-14,18.9069106 L-2.84217094e-14,18.9069106 L-2.84217094e-14,18.9069106"></path>
                        <path transform="translate(30.257509, 10.673598) scale(-1, 1) translate(-30.257509, -10.673598)" stroke-linecap="round" fill="none" stroke-width="1.76399993" id="Path-18-Copy" d="M60.0110187,2.44028451 L10.3578369,8.82111425 C7.76215267,9.15468038 5.3832802,10.4416417 3.68378134,12.431754 L3.26754192,12.9191701 C1.81279623,14.6226765 0.856497556,16.6946799 0.503999981,18.9069106 L0.503999981,18.9069106 L0.503999981,18.9069106"></path>
                        <path fill-rule="evenodd" fill="#FFFFFF" fill-opacity="0.350852273" stroke-width="2.51999991" id="Rectangle" d="M34.0550196,0.560289614 L59.5070187,0.560289614 L59.5070187,2.79808356 C59.5070187,9.82645903 53.8093946,15.5240831 46.7810192,15.5240831 C39.7526437,15.5240831 34.0550196,9.82645903 34.0550196,2.79808356 L34.0550196,0.560289614 L34.0550196,0.560289614 Z"></path>
                        <path fill-rule="evenodd" fill="#FFFFFF" fill-opacity="0.350852273" stroke-width="2.51999991" id="Rectangle-Copy-7" d="M0.539020866,0.560289614 L25.9910199,0.560289614 L25.9910199,2.79808356 C25.9910199,9.82645903 20.2933959,15.5240831 13.2650204,15.5240831 C6.23664493,15.5240831 0.539020866,9.82645903 0.539020866,2.79808356 L0.539020866,0.560289614 L0.539020866,0.560289614 Z"></path>
                        <path fill="none" stroke-width="2.51999991" id="Path-17" d="M25.9910199,3.0139782 C25.9910199,1.349404 27.3404239,3.05777319e-16 29.0049981,0 L31.0410414,0 C32.7056156,-7.49866529e-16 34.0550196,1.349404 34.0550196,3.0139782 L34.0550196,3.0139782 L34.0550196,3.0139782"></path>
                    </g>
                </g>
                <g mask="url(#mask-4)" id="Plane-Copy">
                    <g transform="translate(75.500000, 79.000000) scale(-1, 1) translate(-75.500000, -79.000000) translate(-48.000000, 33.000000)">
                        <path fill="#4E94DD" stroke="none" id="Rectangle" d="M92.365127,26.1579363 L101.013768,26.1579363 L101.013768,26.1579363 L101.013768,35.3831538 L92.365127,35.3831538 C89.8176535,35.3831538 87.7525183,33.3180185 87.7525183,30.770545 C87.7525183,28.2230716 89.8176535,26.1579363 92.365127,26.1579363 Z"></path>
                        <g transform="translate(92.250610, 5.490591)" fill="none" stroke-width="1" stroke="none" id="Path-108">
                            <mask fill="white" id="mask-8">
                                <use xlink:href="#path-7"></use>
                            </mask>
                            <use xlink:href="#path-7" fill="#A6D1FF" id="Mask"></use>
                            <polygon points="4.67000318 34.2587624 4.67000318 -2.88288044 -4.4408921e-16 13.2260314 -2.57274107 34.2587624" mask="url(#mask-8)" fill="#89C1FC"></polygon>
                        </g>
                        <g transform="translate(0.000000, 31.557897)" fill="none" stroke-width="1" stroke="none" id="Rectangle">
                            <mask fill="white" id="mask-10">
                                <use xlink:href="#path-9"></use>
                            </mask>
                            <use xlink:href="#path-9" transform="translate(116.578098, 19.967621) rotate(-3.000000) translate(-116.578098, -19.967621)" fill="#E3F1FF" id="Mask"></use>
                            <path mask="url(#mask-10)" fill="#A6D1FF" id="Path" d="M233.513316,3.82525682 C112.402574,24.2083897 44.2120549,34.9711434 28.9417572,36.1135178 L51.7069843,60.7687234 L239.561097,13.4146639 L233.513316,3.82525682 Z"></path>
                            <g fill="#F3F9FF" mask="url(#mask-10)" id="Group">
                                <g transform="translate(110.259351, 19.496575) rotate(-3.000000) translate(-110.259351, -19.496575) translate(50.759351, 16.496575)">
                                    <rect rx="1.27307995" height="5.09231981" width="3.50096987" y="2.84217094e-14" x="9.05941988e-14" id="Rectangle"></rect>
                                    <rect rx="1.27307995" height="5.09231981" width="3.50096987" y="2.84217094e-14" x="6.04712977" id="Rectangle-Copy-9"></rect>
                                    <rect rx="1.27307995" height="5.09231981" width="3.50096987" y="2.84217094e-14" x="12.0942595" id="Rectangle-Copy-11"></rect>
                                    <rect rx="1.27307995" height="5.09231981" width="3.50096987" y="2.84217094e-14" x="18.1413893" id="Rectangle-Copy-10"></rect>
                                    <rect rx="1.27307995" height="5.09231981" width="3.50096987" y="2.84217094e-14" x="24.1885191" id="Rectangle-Copy-15"></rect>
                                    <rect rx="1.27307995" height="5.09231981" width="3.50096987" y="2.84217094e-14" x="30.2356488" id="Rectangle-Copy-14"></rect>
                                    <rect rx="1.27307995" height="5.09231981" width="3.50096987" y="2.84217094e-14" x="36.2827786" id="Rectangle-Copy-13"></rect>
                                    <rect rx="1.27307995" height="5.09231981" width="3.50096987" y="2.84217094e-14" x="42.3299084" id="Rectangle-Copy-12"></rect>
                                    <rect rx="1.27307995" height="5.09231981" width="3.50096987" y="2.84217094e-14" x="48.3770382" id="Rectangle-Copy-17"></rect>
                                    <rect rx="1.27307995" height="5.09231981" width="3.50096987" y="2.84217094e-14" x="54.4241679" id="Rectangle-Copy-16"></rect>
                                    <rect rx="1.27307995" height="5.09231981" width="3.50096987" y="2.84217094e-14" x="60.5404893" id="Rectangle-Copy"></rect>
                                    <rect rx="1.27307995" height="5.09231981" width="3.50096987" y="2.84217094e-14" x="66.5876191" id="Rectangle-Copy-26"></rect>
                                    <rect rx="1.27307995" height="5.09231981" width="3.50096987" y="2.84217094e-14" x="72.6347489" id="Rectangle-Copy-25"></rect>
                                    <rect rx="1.27307995" height="5.09231981" width="3.50096987" y="2.84217094e-14" x="78.6818786" id="Rectangle-Copy-24"></rect>
                                    <rect rx="1.27307995" height="5.09231981" width="3.50096987" y="2.84217094e-14" x="84.7290084" id="Rectangle-Copy-23"></rect>
                                    <rect rx="1.27307995" height="5.09231981" width="3.50096987" y="2.84217094e-14" x="90.7761382" id="Rectangle-Copy-22"></rect>
                                    <rect rx="1.27307995" height="5.09231981" width="3.50096987" y="2.84217094e-14" x="96.8232679" id="Rectangle-Copy-21"></rect>
                                    <rect rx="1.27307995" height="5.09231981" width="3.50096987" y="2.84217094e-14" x="102.870398" id="Rectangle-Copy-20"></rect>
                                    <rect rx="1.27307995" height="5.09231981" width="3.50096987" y="2.84217094e-14" x="108.917527" id="Rectangle-Copy-19"></rect>
                                    <rect rx="1.27307995" height="5.09231981" width="3.50096987" y="2.84217094e-14" x="114.964657" id="Rectangle-Copy-18"></rect>
                                </g>
                            </g>
                            <path mask="url(#mask-10)" fill="#F3F9FF" d="M5.30213757,18.239659 L27.0553431,19.9916179 C27.7939052,20.0511002 28.3444081,20.698043 28.2849258,21.436605 C28.2727825,21.5873824 28.235228,21.7350204 28.1738508,21.8732741 C27.7036925,22.9323173 26.6727225,23.6322988 25.514931,23.6785593 L2.75523379,24.5879408 L2.75523379,24.5879408 L5.30213757,18.239659 Z"></path>
                        </g>
                        <path fill="#4E94DD" stroke="none" id="Oval-Copy" d="M111.194366,81.5092409 C111.493702,81.5092409 144.802409,74.9606205 145.065266,74.6576533 C145.931262,73.6595141 142.04127,70.3201732 142.04127,67.41727 C142.04127,66.2096018 135.096124,65.7432314 121.205832,66.0181589 C115.172845,66.8028816 111.732485,67.3248415 110.884755,67.5840386 C109.838264,67.9040073 108.866738,70.873626 108.866738,74.6576533 C108.866738,78.4416865 109.908853,81.5092409 111.194366,81.5092409 Z"></path>
                        <ellipse ry="6.91891307" rx="2.01801631" cy="74.5903278" cx="110.884755" fill="#F3F9FF" stroke-width="0.5" stroke="#89C1FC" id="Oval"></ellipse>
                        <polygon points="200.512931 32.3893014 200.512931 25.9933451 209.007082 25.9933451" fill="#4E94DD" stroke="none" id="Path-111"></polygon>
                        <g transform="translate(99.344158, 57.798713)" fill="none" stroke-width="1" stroke="none" id="Path-112">
                            <mask fill="white" id="mask-12">
                                <use xlink:href="#path-11"></use>
                            </mask>
                            <use xlink:href="#path-11" fill="#A6D1FF" id="Mask"></use>
                            <polygon points="-1.15315218 0 96.3846467 32.4514434 88.5501197 39.6734469 -2.42354427 7.26153669" mask="url(#mask-12)" fill="#89C1FC"></polygon>
                        </g>
                        <path fill="#89C1FC" stroke="none" id="Path-109" d="M195.744526,35.0899294 L198.672273,33.846633 L198.672273,33.846633 L231.62098,3.37239473 C233.965155,1.20426939 237.040796,-8.29522029e-15 240.233901,0 L246.566835,0 L246.566835,0 L224.062661,36.1972113 L195.969896,36.1972113 C195.651462,36.1972113 195.39332,35.9390694 195.39332,35.6206352 C195.39332,35.3892951 195.531591,35.1803546 195.744526,35.0899294 Z"></path>
                        <g transform="translate(199.980199, 42.736075)" fill="none" stroke-width="1" stroke="none" id="Path-107">
                            <mask fill="white" id="mask-14">
                                <use xlink:href="#path-13"></use>
                            </mask>
                            <use xlink:href="#path-13" fill="#A6D1FF" id="Mask"></use>
                            <polygon points="-0.576576089 1.62635614 41.2645788 13.4597673 37.2781447 17.3919512 -2.30331791 5.50373399" mask="url(#mask-14)" fill="#89C1FC"></polygon>
                        </g>
                    </g>
                </g>
            </g>
            <g transform="translate(239.000000, 0.000000)" id="Group-2-+-Group-2-Copy-2-+-Path-85-+-Path-85-Copy-+-Path-88-Mask-2">
                <g transform="translate(0.175816, 0.000000)" id="Group-2-+-Group-2-Copy-2-+-Path-85-+-Path-85-Copy-+-Path-88-Mask">
                    <mask fill="white" id="mask-16">
                        <use xlink:href="#path-15"></use>
                    </mask>
                    <use xlink:href="#path-15" fill="#D9ECFF" id="Mask"></use>
                    <g mask="url(#mask-16)" id="Group-2">
                        <g transform="translate(181.081315, 92.764981)">
                            <path fill="#A6D1FF" id="Path-86" d="M46.4500896,94.010954 C44.9955322,59.0002639 37.8178864,35.1903562 24.917152,22.5812311 C36.5695832,45.5458888 38.9503449,69.3557965 32.059437,94.010954 C25.1685292,118.666112 29.9654133,118.666112 46.4500896,94.010954 Z"></path>
                            <g fill="none" stroke-width="1" id="Group">
                                <path fill="#9DC9F8" id="Path-87" d="M28.0769519,27.9677179 C22.3117153,24.2678182 16.6313944,23.1966663 11.0359891,24.7542622 C5.44058374,26.3118582 2.14173725,30.1651714 1.13944959,36.3142018 C4.35961878,33.7137768 8.18681201,31.6725899 12.6210293,30.1906411 C17.0552466,28.7086923 22.2072208,27.9677179 28.0769519,27.9677179 Z"></path>
                                <path transform="translate(33.966055, 15.810836) scale(-1, 1) rotate(73.000000) translate(-33.966055, -15.810836)" fill="#9DC9F8" id="Path-87-Copy-3" d="M47.2741369,13.4821081 C41.6001326,9.75592597 35.9991613,8.69334998 30.471223,10.2943801 C24.9432847,11.8954103 21.6722012,15.8136327 20.6579725,22.0490474 C23.846285,19.4008078 27.6313237,17.3168455 32.0130888,15.7971608 C36.3948538,14.277476 41.4818698,13.5057918 47.2741369,13.4821081 Z"></path>
                                <path transform="translate(35.559560, 21.788097) scale(-1, 1) rotate(49.000000) translate(-35.559560, -21.788097)" fill="#9DC9F8" id="Path-87-Copy-4" d="M45.4699773,20.0434367 C41.2570336,17.3382986 37.0924568,16.5763551 32.9762469,17.7576063 C28.8600371,18.9388575 26.4176693,21.8053691 25.6491436,26.3571412 C28.027087,24.4174063 30.847713,22.8879502 34.1110214,21.7687728 C37.3743299,20.6495955 41.1606485,20.0744835 45.4699773,20.0434367 Z"></path>
                                <path transform="translate(15.078569, 23.187684) rotate(30.000000) translate(-15.078569, -23.187684)" fill="#9DC9F8" id="Path-87-Copy" d="M28.5251875,20.8375114 C22.8042075,17.1600939 17.1511696,16.1205164 11.5660739,17.718779 C5.98097808,19.3170415 2.66960349,23.2050742 1.63195007,29.3828769 C4.85698468,26.7528104 8.68331051,24.6802359 13.1109276,23.1651536 C17.5385446,21.6500712 22.6766313,20.8741905 28.5251875,20.8375114 Z"></path>
                                <path transform="translate(27.372787, 14.557979) scale(-1, 1) rotate(102.000000) translate(-27.372787, -14.557979)" fill="#9DC9F8" id="Path-87-Copy-2" d="M40.6431445,12.3636928 C34.9464909,8.59503952 29.3414083,7.49221058 23.8278969,9.05520603 C18.3143855,10.6182015 15.0725632,14.5158159 14.1024302,20.7480494 C17.2703895,18.1206445 21.0386598,16.0620938 25.407241,14.5723974 C29.7758221,13.082701 34.8544566,12.3464662 40.6431445,12.3636928 Z"></path>
                            </g>
                        </g>
                    </g>
                    <g mask="url(#mask-16)" id="Group-2-Copy-2">
                        <g id="Group-2-Copy" transform="translate(208.428105, 50.184334)">
                            <g>
                                <path fill="#A6D1FF" id="Path-86" d="M64.4307694,132.123503 C62.4131576,82.9192897 52.4570682,49.4567168 34.5625011,31.7357842 C50.7255509,64.0104383 54.0278978,97.4730112 44.4695417,132.123503 C34.9111856,166.773995 41.5649282,166.773995 64.4307694,132.123503 Z"></path>
                                <g fill="#9DC9F8" id="Group">
                                    <path id="Path-87" d="M38.9454494,39.305982 C30.9485084,34.1061229 23.0693535,32.6007202 15.3079848,34.789774 C7.54661616,36.9788277 2.97079683,42.3942949 1.58052685,51.0361755 C6.04721315,47.3815241 11.3559005,44.512829 17.506589,42.4300902 C23.6572775,40.3473514 30.8035643,39.305982 38.9454494,39.305982 Z"></path>
                                    <path transform="translate(47.082320, 22.221350) scale(-1, 1) rotate(73.000000) translate(-47.082320, -22.221350)" id="Path-87-Copy-3" d="M65.7428159,19.0859411 C57.7583453,13.8824888 49.8900363,12.3782586 42.1378891,14.5732504 C34.3857419,16.7682422 29.8137203,22.1925833 28.4218244,30.8462738 C32.8841498,27.1850855 38.1870721,24.3105424 44.3305914,22.2226446 C50.4741107,20.1347468 57.6115189,19.0891789 65.7428159,19.0859411 Z"></path>
                                    <path transform="translate(49.286152, 30.604691) scale(-1, 1) rotate(49.000000) translate(-49.286152, -30.604691)" id="Path-87-Copy-4" d="M63.107591,28.3005222 C57.1953735,24.4887254 51.3683656,23.3880789 45.6265673,24.9985828 C39.8847689,26.6090868 36.4974842,30.5856641 35.4647131,36.9283147 C38.7703645,34.2439857 42.6983953,32.1359991 47.2488053,30.6043551 C51.7992153,29.072711 57.0854772,28.3047667 63.107591,28.3005222 Z"></path>
                                    <path transform="translate(20.952249, 32.554813) rotate(30.000000) translate(-20.952249, -32.554813)" id="Path-87-Copy" d="M39.6316849,29.4164598 C31.6407921,24.2196744 23.765365,22.7185883 16.0054036,24.9132017 C8.2454422,27.1078151 3.66791231,32.5280289 2.27281391,41.1738431 C6.74015968,37.5151393 12.0487265,34.6421531 18.1985144,32.5548845 C24.3483022,30.4676159 31.4926924,29.4214744 39.6316849,29.4164598 Z"></path>
                                    <path transform="translate(37.988864, 20.447972) scale(-1, 1) rotate(102.000000) translate(-37.988864, -20.447972)" id="Path-87-Copy-2" d="M56.6442019,17.3309476 C48.6566348,12.121689 40.7877638,10.6119556 33.0375889,12.8017476 C25.2874141,14.9915395 20.7193929,20.4130632 19.3335254,29.0663188 C23.7930682,25.4079789 29.0936981,22.5369099 35.235415,20.4531119 C41.3771319,18.3693139 48.5133942,17.3285924 56.6442019,17.3309476 Z"></path>
                                </g>
                            </g>
                        </g>
                    </g>
                    <path mask="url(#mask-16)" fill="#C3E0FF" id="Path-85" d="M336.046459,216.651793 C303.235158,190.48338 275.133838,177.399173 251.742499,177.399173 C228.35116,177.399173 200.24984,190.48338 167.438539,216.651793 L336.046459,216.651793 Z"></path>
                    <path mask="url(#mask-16)" fill="#C3E0FF" id="Path-85-Copy" d="M108.156542,216.651793 C75.3452404,190.48338 47.2439204,177.399173 23.8525816,177.399173 C0.461242888,177.399173 -27.6400772,190.48338 -60.4513785,216.651793 L108.156542,216.651793 Z"></path>
                    <path mask="url(#mask-16)" fill="#F3F9FF" id="Path-88" d="M3.72603673,205.596684 L205.998467,205.596684 C208.453641,205.963542 210.155654,207.566997 211.104508,210.407048 C212.527789,214.667125 219.752132,216.208798 222.938418,210.407048 C226.124704,204.605299 229.917699,199.947513 234.715247,200.819646 C239.512796,201.691779 244.495041,212.58504 249.5263,213.417528 C254.557559,214.250016 259.573524,208.876297 261.784541,205.596684 C263.995558,202.31707 270.486728,198.308411 276.592536,204.957966 C282.698345,211.60752 285.405274,213.881516 293.416406,209.243397 C301.427539,204.605279 302.273454,200.819646 308.509954,200.819646 C314.746455,200.819646 318.100576,211.680227 322.570501,212.548878 L317.4797,241.431355 C232.803729,360.335753 138.284159,370.673606 33.9209896,272.444912 L24.0767536,254.876018 L3.72603673,219.007898 L3.72603673,205.596684 Z"></path>
                    <g mask="url(#mask-16)" id="Group-3">
                        <g transform="translate(118.163882, 192.967750)">
                            <path fill-rule="evenodd" fill="#9DC9F8" stroke="none" id="Rectangle" d="M0,44.5548816 L100.271564,44.5548816 C100.271564,57.1530826 90.0587038,67.3659424 77.4605028,67.3659424 L22.8110608,67.3659424 C10.2128598,67.3659424 1.54283465e-15,57.1530826 0,44.5548816 L0,44.5548816 L0,44.5548816 Z"></path>
                            <line fill="none" stroke-width="1.20000005" stroke="#9DC9F8" id="Path-89" y2="51.826451" x2="48.4126919" y1="0" x1="48.4126919"></line>
                            <path fill-rule="evenodd" fill="#9DC9F8" stroke="none" id="Path-90" d="M48.4126919,-2.84217094e-14 C22.8050948,10.8401104 10.0012962,24.8525416 10.0012962,42.0372935 L48.2015545,41.4295829 L48.4126919,-2.84217094e-14 Z"></path>
                        </g>
                    </g>
                    <ellipse ry="31.9354851" rx="31.9045884" cy="95.8064554" cx="115.279478" mask="url(#mask-16)" fill="#C3E0FF" id="Oval"></ellipse>
                    <path mask="url(#mask-16)" fill="#FFFFFF" id="Path-91" d="M43.768758,128.052726 L121.356542,128.052726 C122.055102,116.544958 118.061158,109.635246 109.37471,107.323589 C105.51697,93.8700982 98.1003756,86.9794609 87.124926,86.6516769 C70.6617516,86.1600009 63.4542004,100.004912 63.4542004,108.635738 C55.5656031,108.333323 50.1003397,110.306057 47.0584103,114.553938 C44.8653088,117.615835 43.768758,122.115431 43.768758,128.052726 Z"></path>
                </g>
            </g>
            <g transform="translate(0.000000, 161.000000)" id="Path-88">
                <mask fill="white" id="mask-18">
                    <use xlink:href="#path-17"></use>
                </mask>
                <use xlink:href="#path-17" fill="#D9ECFF" id="Mask"></use>
                <circle r="20.4000008" cy="57.6000023" cx="37.8000016" mask="url(#mask-18)" fill="#C3E0FF" id="Oval"></circle>
                <path mask="url(#mask-18)" fill="#FFFFFF" id="Path-91" d="M-7.80000019,78.0000031 L41.3505936,78.0000031 C41.7931197,70.6641605 39.2630214,66.2594346 33.7602987,64.7858256 C31.3164835,56.2096458 26.6181919,51.8170799 19.6654239,51.6081278 C9.23627189,51.2946997 4.67040597,60.1203977 4.67040597,65.6222796 C-0.326891558,65.4294999 -3.78904662,66.6870559 -5.7160592,69.3949476 C-7.10535319,71.3468113 -7.80000019,74.2151631 -7.80000019,78.0000031 Z"></path>
                <g mask="url(#mask-18)" id="Path-93">
                    <g transform="translate(105.600004, 19.200001)">
                        <mask fill="white" id="mask-20">
                            <use xlink:href="#path-19"></use>
                        </mask>
                        <use xlink:href="#path-19" fill-rule="evenodd" fill="#F7FBFF" stroke="none" id="Mask"></use>
                        <path mask="url(#mask-20)" fill-rule="evenodd" fill="#B6D8FE" stroke="none" id="Path-93" d="M8.70952458,6.35412721 L17.5937668,6.35412721 L17.5937668,19.7394354 L1.95765597,19.7394354 L1.95765597,22.955346 L17.5937668,22.955346 L16.8159231,44.0246176 L3.6091825,44.0246176 L0.703906935,67.8500081 L15.0159231,67.8500081 C16.0100356,67.8500081 16.8159231,68.6558956 16.8159231,69.6500082 L16.8159231,89.9910422 L16.8159231,89.9910422 L12.4217317,89.9910422 L12.4217317,84.3429309 C12.4217317,82.8616917 11.2209502,81.6609101 9.73971101,81.6609101 C8.25847186,81.6609101 7.05769028,82.8616917 7.05769028,84.3429309 L7.05769028,89.9910422 L7.05769028,89.9910422 L-0.390138105,89.9910422 L-1.80000007,97.4812759 L36.4641644,97.4812759 L35.5923481,78.5388775 L29.2931103,25.9663468 L33.6508241,25.9663468 L32.6709426,15.7152094 L28.4349731,13.9547058 L26.7711354,-0.204557956 L9.38770149,-1.80000007 L5.5602819,1.98410228 L8.70952458,6.35412721 Z"></path>
                    </g>
                </g>
                <path mask="url(#mask-18)" fill="#C3E0FF" id="Path-85" d="M211.200004,136.57389 C187.847863,115.924633 167.847863,105.600004 151.200004,105.600004 C134.552147,105.600004 114.552147,115.924633 91.2000036,136.57389 L211.200004,136.57389 Z"></path>
                <path mask="url(#mask-18)" fill="#B6D8FE" id="Path-85-Copy-2" d="M168.000002,143.77389 C144.647862,123.124633 124.647862,112.800004 108.000002,112.800004 C91.3521452,112.800004 71.3521452,123.124633 48.0000019,143.77389 L168.000002,143.77389 Z"></path>
                <path mask="url(#mask-18)" fill="#F7FBFF" d="M-21.6000009,130.33297 L108.577277,130.33297 C110.157363,130.568376 111.252734,131.597278 111.863392,133.419677 C112.779379,136.153276 117.428778,137.142534 119.479389,133.419677 C121.529999,129.69682 123.971072,126.70802 127.05865,127.267649 C130.146228,127.827278 133.352671,134.817247 136.590658,135.351437 C139.828646,135.885626 143.056791,132.437427 144.479744,130.33297 C145.902697,128.228513 150.080245,125.656244 154.009785,129.923119 C157.939324,134.189994 159.681434,135.649168 164.83719,132.672988 C169.992947,129.696808 170.537356,127.267649 174.551005,127.267649 C178.564655,127.267649 180.72328,134.236649 183.600007,134.794043 L180.3237,153.327302 C125.828447,229.625677 64.9981084,236.259253 -2.16731415,173.22803 L-8.50280856,161.954451 L-21.6000009,138.938656 L-21.6000009,130.33297 Z"></path>
            </g>
            <g transform="translate(30.000000, 437.061543)" id="Suitcase-2">
                <g id="Suitcase">
                    <path stroke-width="5" stroke="#B4B4B4" id="Path-67" d="M19.0467487,112.19286 L19.0467487,25 C19.0467487,11.1928813 30.23963,6.08904025e-15 44.0467487,0 L67.8565049,0 C81.6636236,1.01638711e-15 92.8565049,11.1928813 92.8565049,25 L92.8565049,112.19286 L92.8565049,112.19286"></path>
                    <rect rx="6.03816794" height="28.3860182" width="12.0763359" y="244.122951" x="15.5267176" fill="#38372D" id="Rectangle"></rect>
                    <rect rx="6.03816794" height="28.3860182" width="12.0763359" y="244.122951" x="84.5343511" fill="#38372D" id="Rectangle-Copy-5"></rect>
                    <g transform="translate(0.000000, 98.752130)" id="Rectangle-Copy-4">
                        <g id="Rectangle-Copy">
                            <mask fill="white" id="mask-22">
                                <use xlink:href="#path-21"></use>
                            </mask>
                            <use xlink:href="#path-21" fill="#E38F00" id="Mask"></use>
                            <rect rx="24" height="161.714286" width="113" y="3.44072948" x="3.45038168" mask="url(#mask-22)" fill="#F5B315"></rect>
                            <rect rx="20" height="112.683891" width="78.4961832" y="28.3860182" x="17.2519084" mask="url(#mask-22)" fill="#E38F00" id="Rectangle-Copy-2"></rect>
                            <path mask="url(#mask-22)" fill="#F5B315" id="Rectangle-Copy-3" d="M40.7022901,31.8267477 L79.1984733,31.8267477 C90.2441683,31.8267477 99.1984733,40.7810527 99.1984733,51.8267477 L99.1984733,120.209726 C99.1984733,131.255421 90.2441683,140.209726 79.1984733,140.209726 L40.7022901,140.209726 C29.6565951,140.209726 20.7022901,131.255421 20.7022901,120.209726 L20.7022901,51.8267477 C20.7022901,40.7810527 29.6565951,31.8267477 40.7022901,31.8267477 Z"></path>
                            <rect rx="4" height="12.0425532" width="37.0916031" y="52.4711246" x="37.9541985" mask="url(#mask-22)" fill="#FFFFFF" id="Rectangle"></rect>
                        </g>
                    </g>
                    <line stroke-linecap="round" stroke-width="11" stroke="#56565F" id="Path-68" y2="1.26765085" x2="78.3067048" y1="1.26765085" x1="33.5968541"></line>
                </g>
            </g>
            <g transform="translate(148.625743, 212.730383)" id="Woman">
                <g transform="translate(155.562966, 58.600882)" id="Hand">
                    <path transform="translate(27.520637, 33.836314) rotate(-9.000000) translate(-27.520637, -33.836314)" fill="#FFA990" id="Path-158" d="M5,52.4429714 L15.6795567,41.6774392 L25.1692462,21.3021856 L45.3082705,5.70961364 C47.768263,4.01358496 49.2789448,3.57947003 49.8403159,4.40726885 C50.401687,5.23506766 49.7869283,6.65852994 47.9960399,8.67765568 C40.4093801,15.9845712 36.6160502,19.638029 36.6160502,19.638029 C39.3426714,21.6483291 40.5437158,23.5265881 40.2191834,25.2728058 C41.5418828,26.9804897 42.0514835,28.6830476 41.7479856,30.3804794 C42.364173,31.8933732 42.6963945,33.8669051 42.7446501,36.301075 C42.7929058,38.7352449 38.5157417,42.6716145 29.9131579,48.110184 L15.0578455,63.6726271 L5,52.4429714 Z"></path>
                    <line stroke="#062721" id="Path-159" y2="20.709618" x2="32.8112905" y1="17.1715871" x1="35.8844977"></line>
                    <line stroke="#062721" id="Path-160" y2="25.2847058" x2="37.7347184" y1="23.3917465" x1="39.3243764"></line>
                    <line stroke="#062721" id="Path-161" y2="29.9627586" x2="40.649404" y1="28.1973789" x1="41.6333727"></line>
                </g>
                <path stroke-width="4" stroke="#5A271D" id="Path-63" d="M135.348762,125.957969 C125.644039,132.488602 120.791677,147.794578 120.791677,171.875896"></path>
                <g transform="translate(111.529639, 169.930260)" id="Path-65">
                    <mask fill="white" id="mask-24">
                        <use xlink:href="#path-23"></use>
                    </mask>
                    <use xlink:href="#path-23" fill="#AA5849" id="Mask"></use>
                    <polyline points="49.1096839 8.26815242 38.132903 11.6524812 7.25215924 1.29368529e-15" mask="url(#mask-24)" stroke="#5A271D"></polyline>
                    <path mask="url(#mask-24)" stroke="#5A271D" id="Path-64" d="M43.6494988,9.97841461 C43.4366451,9.97841461 32.315442,6.90063312 10.2858893,0.74507013"></path>
                    <line mask="url(#mask-24)" stroke="#5A271D" id="Path-66" y2="61.8163465" x2="29.4773012" y1="11.6524812" x1="38.132903"></line>
                </g>
                <g transform="translate(4.607870, 70.555507)" id="Clothes">
                    <path fill="#13BB84" id="Combined-Shape" d="M85.1822349,9.98112218 C95.2201493,20.3500592 113.08434,38.4914002 138.774806,64.405145 L162.669861,35.1560092 L179.635364,47.9041764 C164.630481,75.3456298 153.487592,91.0264527 146.206699,94.946645 C138.925806,98.8668374 122.454437,89.8163051 96.7925914,67.7950483 C100.50241,80.7308731 103.610288,90.8198515 106.116227,98.0619836 C108.622166,105.304116 110.864595,115.553551 112.843513,128.81029 L39.3057551,128.424984 C39.3057551,126.212134 39.273708,124.078873 39.1316181,121.876791 L7.40686426,121.876243 C-1.94067253,121.876243 -2.44069562,88.4022052 5.90679499,21.4541302 L5.90679499,21.4541302 L6.12239897,21.9012601 C7.24526544,12.6177724 12.754052,6.35432134 22.6487587,3.11090692 C54.2998284,-2.67788661 75.1443205,-0.38781486 85.1822349,9.98112218 Z M28.6331582,86.0379436 L26.6755902,98.6533821 L33.7405328,98.7851511 C32.3893713,95.0644065 30.712787,90.8645699 28.6331582,86.0379436 Z"></path>
                    <path stroke="#201F1D" id="Path-39" d="M17.6825005,60.6224454 C32.0980036,89.312308 39.3057551,111.913154 39.3057551,128.424984 L72.3784397,128.61409"></path>
                    <line stroke="#201F1D" id="Path-40" y2="84.7189236" x2="118.642339" y1="53.7981315" x1="77.3629385"></line>
                    <line stroke="#201F1D" id="Path-41" y2="64.405145" x2="138.774806" y1="35.1560092" x1="162.669861"></line>
                </g>
                <g transform="translate(0.000000, 198.980491)" id="Pants">
                    <g transform="translate(0.000000, 131.606888)" id="Foot">
                        <path fill="#FFA990" id="Path-34" d="M79.8362557,0 C75.0463454,22.4347534 73.8488679,40.5915686 76.243823,54.4704454 C78.6387782,68.3493223 78.244588,94.0305833 75.0612526,131.514229 L94.8594265,155.625293 L99.3433041,155.625293 C97.1515314,150.120083 95.6569055,145.780485 94.8594265,142.606498 C94.0619475,139.432511 93.5372344,135.735088 93.2852872,131.514229 L110.270486,0 L79.8362557,0 Z"></path>
                        <path fill="#201F1D" id="Path-35" d="M74.8879398,164.962311 L71.571977,139.387519 C71.7225233,127.72483 74.059011,122.427787 78.5814401,123.496391 C85.3650837,125.099296 88.7038419,153.493417 96.8551099,154.48825 C102.289289,155.151473 104.88728,158.642826 104.649083,164.962311 L85.4131946,164.962311 L78.5814401,150.925374 L76.9753834,164.962311 L74.8879398,164.962311 Z"></path>
                        <path fill="#FFA990" id="Path-37" d="M41.1286336,2.98427949e-13 L39.270929,19.7190649 C29.7224477,30.9297813 24.311565,43.4957665 23.0382809,57.4170202 C21.7649967,71.338274 16.2426449,93.0397831 6.47122521,122.521548 L24.2084718,154.620083 L31.0241298,156.597802 C27.8541499,151.954858 25.9035125,148.335783 25.1722176,145.740578 C24.4409227,143.145373 24.1196741,139.605704 24.2084718,135.121571 C35.2022701,103.335805 42.6809,82.0983981 46.6443614,71.4093498 C55.8121957,46.6846425 62.8284071,36.6094796 63.6973422,33.637578 C65.1297677,28.7384463 68.367572,17.5259203 73.410755,2.98427949e-13 L41.1286336,2.98427949e-13 Z"></path>
                        <path fill="#201F1D" id="Path-36" d="M6.47122521,122.521548 C2.15707507,128.823138 4.26325641e-14,134.706117 4.26325641e-14,140.170484 C4.26325641e-14,145.634851 4.26325641e-14,153.898793 4.26325641e-14,164.962311 L6.47122521,164.962311 L8.49795072,145.756312 C11.4997951,158.560311 14.2255226,164.962311 16.6751334,164.962311 C19.1247441,164.962311 24.4999117,164.962311 32.8006361,164.962311 C35.4608885,161.847618 34.7995297,158.889962 30.8165595,156.089344 C24.8421043,151.888417 19.216059,138.72036 18.253144,133.253782 C17.704195,130.137336 15.879578,124.46677 11.4904966,122.521548 C10.2574166,121.975052 8.58432618,121.975052 6.47122521,122.521548 Z"></path>
                    </g>
                    <path fill="#201F1D" id="Path-33" d="M43.9136256,0 C33.7920871,14.2002463 30.8398033,29.9499602 35.056774,47.2491415 C41.3822301,73.1979135 35.3476496,120.709632 33.0611844,134.07888 L117.451384,134.07888 C126.032417,67.5255941 126.032417,22.9610693 117.451384,0.385305918 L43.9136256,0 Z"></path>
                </g>
                <g transform="translate(12.836642, 0.000000)" id="Head">
                    <path fill="#FFA990" id="Path-30" d="M70.3768459,26.3640355 C69.6203628,45.2045188 65.6783865,58.6492617 58.5509172,66.6982644 C57.1683143,67.8266404 55.6723599,68.306393 54.0630539,68.1375222 L53.5046835,71.2399845 L47.2649784,71.2399845 L47.2649784,26.3640355 L70.3768459,26.3640355 Z"></path>
                    <path fill="#3D2423" id="Path-31" d="M61.8920538,5.7529308 C69.2304469,11.4893254 79.8627063,25.048804 57.981227,42.2418598 C57.4509063,38.0886243 56.5295949,35.8103075 55.2172928,35.4069094 C53.2488397,34.8018121 51.5058811,42.1654107 54.3598132,47.2300396 C53.2778319,49.053698 51.8598198,50.9059436 50.105777,52.7867763 C53.5134542,74.8144033 54.2770604,93.6041133 52.3965956,109.155906 C49.5758984,132.483596 7.36614742,128.72965 1.47392305,111.616849 C-4.41830131,94.5040484 8.81935836,87.5622949 15.4277827,67.6723529 C22.036207,47.7824108 14.472871,18.3780605 26.12815,7.09757276 C37.7834289,-4.18291496 54.5536607,0.0165361948 61.8920538,5.7529308 Z"></path>
                </g>
                <path stroke-width="4" stroke="#5A271D" id="Path-62" d="M134.883882,126.22984 C141.298264,120.607234 148.063349,138.500179 155.179138,179.908675"></path>
            </g>
        </g>
    </g>
</svg>